<?xml version="1.0" encoding="UTF-8" standalone="no"?>
<!-- Created with Inkscape (http://www.inkscape.org/) -->

<svg
   xmlns:dc="http://purl.org/dc/elements/1.1/"
   xmlns:cc="http://creativecommons.org/ns#"
   xmlns:rdf="http://www.w3.org/1999/02/22-rdf-syntax-ns#"
   xmlns:svg="http://www.w3.org/2000/svg"
   xmlns="http://www.w3.org/2000/svg"
   xmlns:sodipodi="http://sodipodi.sourceforge.net/DTD/sodipodi-0.dtd"
   xmlns:inkscape="http://www.inkscape.org/namespaces/inkscape"
   version="1.1"
   id="svg2"
   xml:space="preserve"
   width="2560"
   height="1440"
   viewBox="0 0 2560 1440"
   sodipodi:docname="favicon.ico.svg"
   inkscape:version="0.92.5 (2060ec1f9f, 2020-04-08)"><metadata
     id="metadata8"><rdf:RDF><cc:Work
         rdf:about=""><dc:format>image/svg+xml</dc:format><dc:type
           rdf:resource="http://purl.org/dc/dcmitype/StillImage" /><dc:title></dc:title></cc:Work></rdf:RDF></metadata><defs
     id="defs6"><clipPath
       clipPathUnits="userSpaceOnUse"
       id="clipPath18"><path
         d="M 0,1080 H 1920 V 0 H 0 Z"
         id="path16"
         inkscape:connector-curvature="0" /></clipPath></defs><sodipodi:namedview
     pagecolor="#ffffff"
     bordercolor="#666666"
     borderopacity="1"
     objecttolerance="10"
     gridtolerance="10"
     guidetolerance="10"
     inkscape:pageopacity="0"
     inkscape:pageshadow="2"
     inkscape:window-width="1920"
     inkscape:window-height="948"
     id="namedview4"
     showgrid="false"
     inkscape:zoom="1.084375"
     inkscape:cx="462.93948"
     inkscape:cy="1088.8761"
     inkscape:window-x="0"
     inkscape:window-y="27"
     inkscape:window-maximized="1"
     inkscape:current-layer="g14" /><g
     id="g10"
     inkscape:groupmode="layer"
     inkscape:label="CC_15"
     transform="matrix(1.3333333,0,0,-1.3333333,0,1440)"><g
       id="g12"><g
         id="g14"
         clip-path="url(#clipPath18)"><g
           id="g20"
           transform="translate(378.8818,566.3525)"><path
             d="m 0,0 c -3.694,0 -6.766,1.155 -9.214,3.468 -2.448,2.357 -3.672,5.326 -3.672,8.908 0,3.626 1.212,6.596 3.638,8.907 2.448,2.313 5.53,3.469 9.248,3.469 2.313,0 4.408,-0.499 6.29,-1.496 v -4.931 c -1.836,1.225 -3.922,1.836 -6.256,1.836 -2.244,0 -4.137,-0.736 -5.678,-2.21 -1.496,-1.45 -2.244,-3.309 -2.244,-5.575 0,-2.268 0.771,-4.138 2.312,-5.61 1.518,-1.452 3.457,-2.176 5.814,-2.176 2.607,0 4.783,0.69 6.529,2.074 V 1.733 C 4.84,0.577 2.584,0 0,0"
             style="fill:#1d2d61;fill-opacity:1;fill-rule:nonzero;stroke:none"
             id="path22"
             inkscape:connector-curvature="0" /></g><g
           id="g24"
           transform="translate(395.4062,573.1523)"><path
             d="m 0,0 c 1.405,-1.474 3.162,-2.21 5.27,-2.21 2.084,0 3.83,0.736 5.236,2.21 1.405,1.473 2.107,3.332 2.107,5.576 0,2.243 -0.702,4.102 -2.107,5.575 C 9.1,12.625 7.354,13.361 5.27,13.361 3.162,13.361 1.405,12.625 0,11.151 -1.383,9.701 -2.074,7.842 -2.074,5.576 -2.074,3.309 -1.383,1.45 0,0 m -7.072,5.576 c 0,3.49 1.167,6.414 3.502,8.772 2.334,2.402 5.281,3.604 8.84,3.604 3.536,0 6.471,-1.202 8.806,-3.604 2.357,-2.403 3.535,-5.327 3.535,-8.772 0,-3.423 -1.178,-6.347 -3.535,-8.772 C 11.741,-5.599 8.806,-6.8 5.27,-6.8 c -3.559,0 -6.506,1.201 -8.84,3.604 -2.335,2.402 -3.502,5.326 -3.502,8.772"
             style="fill:#1d2d61;fill-opacity:1;fill-rule:nonzero;stroke:none"
             id="path26"
             inkscape:connector-curvature="0" /></g><g
           id="g28"
           transform="translate(421.8916,566.8281)"><path
             d="m 0,0 h -4.794 v 23.8 h 4.182 L 11.39,8.568 V 23.8 h 4.759 V 0 H 12.104 L 0,15.3 Z"
             style="fill:#1d2d61;fill-opacity:1;fill-rule:nonzero;stroke:none"
             id="path30"
             inkscape:connector-curvature="0" /></g><g
           id="g32"
           transform="translate(441.373,586.2422)"><path
             d="M 0,0 V 4.386 H 19.958 V 0 H 12.41 V -19.414 H 7.515 L 7.515,0 Z"
             style="fill:#1d2d61;fill-opacity:1;fill-rule:nonzero;stroke:none"
             id="path34"
             inkscape:connector-curvature="0" /></g><g
           id="g36"
           transform="translate(469.5254,586.3437)"><path
             d="m 0,0 v -5.779 h 5.848 c 1.11,0 1.977,0.249 2.6,0.748 0.623,0.498 0.936,1.212 0.936,2.141 0,0.907 -0.313,1.616 -0.936,2.125 C 7.825,-0.255 6.958,0 5.848,0 Z m 0,-19.516 h -4.896 v 23.8 H 6.119 c 2.539,0 4.533,-0.657 5.985,-1.971 1.473,-1.292 2.209,-2.982 2.209,-5.067 0,-1.587 -0.436,-2.964 -1.308,-4.131 -0.873,-1.168 -2.08,-1.989 -3.621,-2.465 l 7.344,-10.166 H 11.05 L 4.113,-9.894 H 0 Z"
             style="fill:#1d2d61;fill-opacity:1;fill-rule:nonzero;stroke:none"
             id="path38"
             inkscape:connector-curvature="0" /></g><g
           id="g40"
           transform="translate(499.5469,584.6445)"><path
             d="m 0,0 -3.502,-8.263 h 6.97 z m -7.378,-17.816 h -5.135 l 10.2,23.935 H 2.38 l 10.2,-23.935 H 7.378 l -2.347,5.507 H -5.032 Z"
             style="fill:#1d2d61;fill-opacity:1;fill-rule:nonzero;stroke:none"
             id="path42"
             inkscape:connector-curvature="0" /></g><g
           id="g44"
           transform="translate(525.3184,566.3525)"><path
             d="m 0,0 c -3.694,0 -6.766,1.155 -9.214,3.468 -2.448,2.357 -3.672,5.326 -3.672,8.908 0,3.626 1.212,6.596 3.638,8.907 2.448,2.313 5.53,3.469 9.248,3.469 2.313,0 4.408,-0.499 6.29,-1.496 v -4.931 c -1.836,1.225 -3.922,1.836 -6.256,1.836 -2.244,0 -4.137,-0.736 -5.678,-2.21 -1.496,-1.45 -2.244,-3.309 -2.244,-5.575 0,-2.268 0.771,-4.138 2.312,-5.61 1.518,-1.452 3.457,-2.176 5.814,-2.176 2.607,0 4.783,0.69 6.529,2.074 V 1.733 C 4.84,0.577 2.584,0 0,0"
             style="fill:#1d2d61;fill-opacity:1;fill-rule:nonzero;stroke:none"
             id="path46"
             inkscape:connector-curvature="0" /></g><g
           id="g48"
           transform="translate(534.3281,586.2422)"><path
             d="M 0,0 V 4.386 H 19.958 V 0 H 12.41 V -19.414 H 7.515 L 7.515,0 Z"
             style="fill:#1d2d61;fill-opacity:1;fill-rule:nonzero;stroke:none"
             id="path50"
             inkscape:connector-curvature="0" /></g><g
           id="g52"
           transform="translate(562.1406,573.1523)"><path
             d="m 0,0 c 1.405,-1.474 3.162,-2.21 5.27,-2.21 2.084,0 3.83,0.736 5.236,2.21 1.405,1.473 2.107,3.332 2.107,5.576 0,2.243 -0.702,4.102 -2.107,5.575 C 9.1,12.625 7.354,13.361 5.27,13.361 3.162,13.361 1.405,12.625 0,11.151 -1.383,9.701 -2.074,7.842 -2.074,5.576 -2.074,3.309 -1.383,1.45 0,0 m -7.072,5.576 c 0,3.49 1.167,6.414 3.502,8.772 2.334,2.402 5.281,3.604 8.84,3.604 3.536,0 6.471,-1.202 8.806,-3.604 2.357,-2.403 3.535,-5.327 3.535,-8.772 0,-3.423 -1.178,-6.347 -3.535,-8.772 C 11.741,-5.599 8.806,-6.8 5.27,-6.8 c -3.559,0 -6.506,1.201 -8.84,3.604 -2.335,2.402 -3.502,5.326 -3.502,8.772"
             style="fill:#1d2d61;fill-opacity:1;fill-rule:nonzero;stroke:none"
             id="path54"
             inkscape:connector-curvature="0" /></g><g
           id="g56"
           transform="translate(588.7275,586.3437)"><path
             d="m 0,0 v -5.779 h 5.848 c 1.11,0 1.977,0.249 2.601,0.748 0.623,0.498 0.935,1.212 0.935,2.141 0,0.907 -0.312,1.616 -0.935,2.125 C 7.825,-0.255 6.958,0 5.848,0 Z m 0,-19.516 h -4.896 v 23.8 H 6.12 c 2.538,0 4.533,-0.657 5.984,-1.971 1.473,-1.292 2.21,-2.982 2.21,-5.067 0,-1.587 -0.437,-2.964 -1.309,-4.131 -0.873,-1.168 -2.08,-1.989 -3.621,-2.465 l 7.345,-10.166 H 11.05 L 4.114,-9.894 H 0 Z"
             style="fill:#1d2d61;fill-opacity:1;fill-rule:nonzero;stroke:none"
             id="path58"
             inkscape:connector-curvature="0" /></g><g
           id="g60"
           transform="translate(616.1992,566.3525)"><path
             d="M 0,0 C -3.581,0 -6.596,0.85 -9.044,2.55 V 7.649 C -8.047,6.788 -6.731,6.04 -5.1,5.405 c 1.655,-0.611 3.287,-0.918 4.896,-0.918 1.338,0 2.436,0.243 3.299,0.732 0.86,0.487 1.292,1.161 1.292,2.022 0,0.93 -0.408,1.587 -1.225,1.973 -0.34,0.204 -0.793,0.408 -1.359,0.611 l -0.817,0.273 -1.904,0.578 -1.768,0.578 c -0.25,0.067 -0.782,0.26 -1.597,0.578 -0.703,0.272 -1.213,0.51 -1.53,0.714 -1.179,0.815 -1.927,1.507 -2.245,2.073 -0.544,1.089 -0.816,2.199 -0.816,3.332 0,2.109 0.805,3.763 2.414,4.965 1.609,1.224 3.797,1.836 6.563,1.836 2.788,0 5.382,-0.658 7.786,-1.973 V 18.02 c -2.426,1.496 -4.998,2.244 -7.719,2.244 -2.697,0 -4.046,-0.783 -4.046,-2.346 0,-0.681 0.42,-1.225 1.259,-1.633 0.498,-0.271 1.143,-0.51 1.937,-0.714 C 0.386,15.276 1.247,15.027 1.904,14.823 3.876,14.212 5.599,13.384 7.072,12.342 8.659,11.23 9.452,9.576 9.452,7.378 9.452,5.088 8.557,3.286 6.767,1.972 4.976,0.657 2.721,0 0,0"
             style="fill:#1d2d61;fill-opacity:1;fill-rule:nonzero;stroke:none"
             id="path62"
             inkscape:connector-curvature="0" /></g><g
           id="g64"
           transform="translate(373.0684,537.1523)"><path
             d="m 0,0 c 1.405,-1.474 3.162,-2.21 5.27,-2.21 2.084,0 3.83,0.736 5.236,2.21 1.405,1.473 2.107,3.332 2.107,5.576 0,2.243 -0.702,4.102 -2.107,5.575 C 9.1,12.625 7.354,13.361 5.27,13.361 3.162,13.361 1.405,12.625 0,11.151 -1.383,9.701 -2.074,7.842 -2.074,5.576 -2.074,3.309 -1.383,1.45 0,0 m -7.072,5.576 c 0,3.49 1.167,6.414 3.502,8.772 2.334,2.402 5.281,3.604 8.84,3.604 3.536,0 6.471,-1.202 8.806,-3.604 2.357,-2.403 3.535,-5.327 3.535,-8.772 0,-3.423 -1.178,-6.347 -3.535,-8.772 C 11.741,-5.599 8.806,-6.8 5.27,-6.8 c -3.559,0 -6.506,1.201 -8.84,3.604 -2.335,2.402 -3.502,5.326 -3.502,8.772"
             style="fill:#1d2d61;fill-opacity:1;fill-rule:nonzero;stroke:none"
             id="path66"
             inkscape:connector-curvature="0" /></g><g
           id="g68"
           transform="translate(399.5537,530.8281)"><path
             d="m 0,0 h -4.794 v 23.8 h 4.182 L 11.39,8.568 V 23.8 h 4.759 V 0 H 12.104 L 0,15.3 Z"
             style="fill:#1d2d61;fill-opacity:1;fill-rule:nonzero;stroke:none"
             id="path70"
             inkscape:connector-curvature="0" /></g><g
           id="g72"
           transform="translate(437.5996,530.8281)"><path
             d="m 0,0 h -16.966 v 23.8 h 4.896 V 4.386 l 12.07,0 z"
             style="fill:#1d2d61;fill-opacity:1;fill-rule:nonzero;stroke:none"
             id="path74"
             inkscape:connector-curvature="0" /></g><path
           d="m 445.827,530.828 h -4.861 v 23.8 h 4.861 z"
           style="fill:#1d2d61;fill-opacity:1;fill-rule:nonzero;stroke:none"
           id="path76"
           inkscape:connector-curvature="0" /><g
           id="g78"
           transform="translate(455.6875,530.8281)"><path
             d="m 0,0 h -4.794 v 23.8 h 4.182 L 11.39,8.568 V 23.8 h 4.759 V 0 H 12.104 L 0,15.3 Z"
             style="fill:#1d2d61;fill-opacity:1;fill-rule:nonzero;stroke:none"
             id="path80"
             inkscape:connector-curvature="0" /></g><g
           id="g82"
           transform="translate(494.6172,530.8281)"><path
             d="m 0,0 h -17.85 v 23.8 h 17.476 v -4.386 h -12.58 v -4.59 H -2.822 V 10.506 H -12.954 V 4.386 L 0,4.386 Z"
             style="fill:#1d2d61;fill-opacity:1;fill-rule:nonzero;stroke:none"
             id="path84"
             inkscape:connector-curvature="0" /></g><g
           id="g86"
           transform="translate(434.7109,302.5664)"><path
             d="m 0,0 v -6.223 h 6.153 c 1.225,0 2.177,0.267 2.857,0.799 0.679,0.532 1.019,1.298 1.019,2.295 0,0.998 -0.34,1.769 -1.019,2.313 C 8.33,-0.272 7.378,0 6.153,0 Z M 0,9.281 V 4.046 h 5.508 c 1.019,0 1.818,0.225 2.396,0.68 0.578,0.453 0.867,1.087 0.867,1.904 0,0.838 -0.289,1.49 -0.867,1.955 C 7.326,9.049 6.527,9.281 5.508,9.281 Z M 7.071,-10.438 H -4.896 V 13.361 H 6.29 c 2.198,0 3.949,-0.521 5.253,-1.563 1.303,-1.043 1.955,-2.505 1.955,-4.387 0,-1.155 -0.284,-2.141 -0.851,-2.958 -0.566,-0.815 -1.28,-1.405 -2.141,-1.767 1.292,-0.273 2.425,-0.975 3.399,-2.109 0.952,-1.11 1.429,-2.527 1.429,-4.25 0,-2.017 -0.748,-3.649 -2.244,-4.895 -1.474,-1.247 -3.48,-1.87 -6.019,-1.87"
             style="fill:#1d2d61;fill-opacity:1;fill-rule:nonzero;stroke:none"
             id="path88"
             inkscape:connector-curvature="0" /></g><g
           id="g90"
           transform="translate(465.4121,291.9922)"><path
             d="m 0,0 h -4.624 l -9.996,23.936 h 5.406 L -2.277,6.8 4.692,23.936 h 5.304 z"
             style="fill:#1d2d61;fill-opacity:1;fill-rule:nonzero;stroke:none"
             id="path92"
             inkscape:connector-curvature="0" /></g><g
           id="g94"
           transform="translate(483.1943,292.1279)"><path
             d="M 0,0 H -4.896 V 23.8 H 0 V 14.416 L 8.771,23.8 h 5.985 L 4.657,12.886 16.489,0 H 10.233 L 0,10.982 Z"
             style="fill:#1d2d61;fill-opacity:1;fill-rule:nonzero;stroke:none"
             id="path96"
             inkscape:connector-curvature="0" /></g><g
           id="g98"
           transform="translate(441.6807,255.6523)"><path
             d="m 0,0 c -3.627,0 -6.642,1.155 -9.044,3.468 -2.426,2.357 -3.639,5.326 -3.639,8.908 0,3.626 1.213,6.596 3.639,8.907 2.402,2.313 5.474,3.469 9.214,3.469 2.742,0 5.122,-0.602 7.14,-1.803 v -4.827 c -2.199,1.359 -4.466,2.039 -6.8,2.039 -2.426,0 -4.398,-0.725 -5.916,-2.176 -1.519,-1.427 -2.279,-3.332 -2.279,-5.712 0,-2.357 0.737,-4.238 2.21,-5.643 C -4.001,5.224 -2.176,4.521 0,4.521 c 2.085,0 3.683,0.522 4.794,1.565 v 8.193 H 9.689 V 3.773 C 8.67,2.686 7.31,1.79 5.61,1.088 3.842,0.362 1.972,0 0,0"
             style="fill:#1d2d61;fill-opacity:1;fill-rule:nonzero;stroke:none"
             id="path100"
             inkscape:connector-curvature="0" /></g><g
           id="g102"
           transform="translate(460.4492,275.6436)"><path
             d="m 0,0 v -5.779 h 5.848 c 1.11,0 1.977,0.249 2.6,0.748 0.623,0.498 0.936,1.212 0.936,2.141 0,0.907 -0.313,1.616 -0.936,2.125 C 7.825,-0.255 6.958,0 5.848,0 Z m 0,-19.516 h -4.896 v 23.8 H 6.119 c 2.539,0 4.533,-0.657 5.985,-1.971 1.473,-1.292 2.209,-2.982 2.209,-5.067 0,-1.587 -0.436,-2.964 -1.308,-4.131 -0.873,-1.168 -2.08,-1.989 -3.621,-2.465 l 7.344,-10.166 H 11.05 L 4.113,-9.894 H 0 Z"
             style="fill:#1d2d61;fill-opacity:1;fill-rule:nonzero;stroke:none"
             id="path104"
             inkscape:connector-curvature="0" /></g><g
           id="g106"
           transform="translate(485.6084,262.4521)"><path
             d="m 0,0 c 1.405,-1.474 3.162,-2.21 5.271,-2.21 2.084,0 3.83,0.736 5.235,2.21 1.405,1.473 2.108,3.332 2.108,5.576 0,2.243 -0.703,4.102 -2.108,5.575 -1.405,1.474 -3.151,2.21 -5.235,2.21 C 3.162,13.361 1.405,12.625 0,11.151 -1.383,9.701 -2.074,7.842 -2.074,5.576 -2.074,3.309 -1.383,1.45 0,0 m -7.072,5.576 c 0,3.49 1.168,6.414 3.503,8.772 2.334,2.402 5.28,3.604 8.84,3.604 3.536,0 6.47,-1.202 8.805,-3.604 2.358,-2.403 3.536,-5.327 3.536,-8.772 0,-3.423 -1.178,-6.347 -3.536,-8.772 C 11.741,-5.599 8.807,-6.8 5.271,-6.8 c -3.56,0 -6.506,1.201 -8.84,3.604 -2.335,2.402 -3.503,5.326 -3.503,8.772"
             style="fill:#1d2d61;fill-opacity:1;fill-rule:nonzero;stroke:none"
             id="path108"
             inkscape:connector-curvature="0" /></g><g
           id="g110"
           transform="translate(517.1602,255.6523)"><path
             d="m 0,0 c -2.97,0 -5.406,0.918 -7.31,2.754 -1.904,1.836 -2.856,4.408 -2.856,7.718 v 13.803 h 4.862 V 10.302 c 0,-1.836 0.482,-3.247 1.446,-4.234 C -2.896,5.083 -1.609,4.59 0,4.59 c 1.632,0 2.93,0.493 3.894,1.478 0.962,0.987 1.444,2.398 1.444,4.234 v 13.973 h 4.896 V 10.472 C 10.234,7.162 9.271,4.59 7.344,2.754 5.44,0.918 2.992,0 0,0"
             style="fill:#1d2d61;fill-opacity:1;fill-rule:nonzero;stroke:none"
             id="path112"
             inkscape:connector-curvature="0" /></g><g
           id="g114"
           transform="translate(536.8457,275.6436)"><path
             d="m 0,0 v -5.916 h 5.168 c 1.179,0 2.097,0.256 2.754,0.766 0.657,0.509 0.986,1.241 0.986,2.192 0,0.952 -0.329,1.684 -0.986,2.193 C 7.265,-0.255 6.347,0 5.168,0 Z m 0,-19.516 h -4.896 v 23.8 H 5.508 c 2.561,0 4.578,-0.669 6.053,-2.006 1.495,-1.314 2.243,-3.038 2.243,-5.168 0,-2.153 -0.748,-3.887 -2.243,-5.202 -1.475,-1.338 -3.492,-2.006 -6.053,-2.006 H 0 Z"
             style="fill:#1d2d61;fill-opacity:1;fill-rule:nonzero;stroke:none"
             id="path116"
             inkscape:connector-curvature="0" /></g><g
           id="g118"
           transform="translate(379.3115,839.8105)"
           inkscape:export-filename="/home/nikita/comm-su/public/comm_logo_ru.png"
           inkscape:export-xdpi="54.150002"
           inkscape:export-ydpi="54.150002"><path
             d="m 0,0 c -3.695,0 -6.767,1.155 -9.214,3.468 -2.448,2.357 -3.673,5.326 -3.673,8.908 0,3.626 1.213,6.596 3.639,8.907 2.448,2.313 5.53,3.469 9.248,3.469 2.312,0 4.408,-0.499 6.29,-1.496 v -4.931 c -1.836,1.225 -3.922,1.836 -6.256,1.836 -2.244,0 -4.138,-0.736 -5.679,-2.21 -1.496,-1.45 -2.244,-3.309 -2.244,-5.575 0,-2.268 0.771,-4.138 2.313,-5.61 1.518,-1.452 3.456,-2.176 5.813,-2.176 2.607,0 4.784,0.69 6.529,2.074 V 1.733 C 4.839,0.577 2.584,0 0,0"
             style="fill:#1d2d61;fill-opacity:1;fill-rule:nonzero;stroke:none"
             id="path120"
             inkscape:connector-curvature="0" /></g><g
           id="g122"
           transform="translate(395.835,846.6104)"
           inkscape:export-filename="/home/nikita/comm-su/public/comm_logo_ru.png"
           inkscape:export-xdpi="54.150002"
           inkscape:export-ydpi="54.150002"><path
             d="m 0,0 c 1.405,-1.474 3.162,-2.21 5.271,-2.21 2.084,0 3.83,0.736 5.235,2.21 1.405,1.473 2.108,3.332 2.108,5.576 0,2.243 -0.703,4.102 -2.108,5.575 -1.405,1.474 -3.151,2.21 -5.235,2.21 C 3.162,13.361 1.405,12.625 0,11.151 -1.383,9.701 -2.074,7.842 -2.074,5.576 -2.074,3.309 -1.383,1.45 0,0 m -7.072,5.576 c 0,3.49 1.168,6.414 3.503,8.772 2.334,2.402 5.28,3.604 8.84,3.604 3.536,0 6.47,-1.202 8.805,-3.604 2.358,-2.403 3.536,-5.327 3.536,-8.772 0,-3.423 -1.178,-6.347 -3.536,-8.772 C 11.741,-5.599 8.807,-6.8 5.271,-6.8 c -3.56,0 -6.506,1.201 -8.84,3.604 -2.335,2.402 -3.503,5.326 -3.503,8.772"
             style="fill:#1d2d61;fill-opacity:1;fill-rule:nonzero;stroke:none"
             id="path124"
             inkscape:connector-curvature="0" /></g><g
           id="g126"
           transform="translate(422.4229,840.2861)"
           inkscape:export-filename="/home/nikita/comm-su/public/comm_logo_ru.png"
           inkscape:export-xdpi="54.150002"
           inkscape:export-ydpi="54.150002"><path
             d="m 0,0 h -4.896 v 23.8 h 4.862 l 6.901,-9.86 6.903,9.86 h 4.828 V 0 H 13.77 V 16.286 L 8.296,8.636 H 5.575 L 0,16.286 Z"
             style="fill:#1d2d61;fill-opacity:1;fill-rule:nonzero;stroke:none"
             id="path128"
             inkscape:connector-curvature="0" /></g><g
           id="g130"
           transform="translate(450.8467,859.8018)"
           inkscape:export-filename="/home/nikita/comm-su/public/comm_logo_ru.png"
           inkscape:export-xdpi="54.150002"
           inkscape:export-ydpi="54.150002"><path
             d="m 0,0 v -5.916 h 5.168 c 1.178,0 2.096,0.256 2.754,0.766 0.657,0.509 0.985,1.241 0.985,2.192 0,0.952 -0.328,1.684 -0.985,2.193 C 7.264,-0.255 6.346,0 5.168,0 Z m 0,-19.516 h -4.896 v 23.8 H 5.508 c 2.56,0 4.578,-0.669 6.052,-2.006 1.496,-1.314 2.244,-3.038 2.244,-5.168 0,-2.153 -0.748,-3.887 -2.244,-5.202 -1.474,-1.338 -3.492,-2.006 -6.052,-2.006 H 0 Z"
             style="fill:#1d2d61;fill-opacity:1;fill-rule:nonzero;stroke:none"
             id="path132"
             inkscape:connector-curvature="0" /></g><g
           id="g134"
           transform="translate(484.9824,840.2861)"
           inkscape:export-filename="/home/nikita/comm-su/public/comm_logo_ru.png"
           inkscape:export-xdpi="54.150002"
           inkscape:export-ydpi="54.150002"><path
             d="m 0,0 h -16.966 v 23.8 h 4.896 V 4.386 l 12.07,0 z"
             style="fill:#1d2d61;fill-opacity:1;fill-rule:nonzero;stroke:none"
             id="path136"
             inkscape:connector-curvature="0" /></g><g
           id="g138"
           transform="translate(506.0283,840.2861)"
           inkscape:export-filename="/home/nikita/comm-su/public/comm_logo_ru.png"
           inkscape:export-xdpi="54.150002"
           inkscape:export-ydpi="54.150002"><path
             d="m 0,0 h -17.85 v 23.8 h 17.476 v -4.386 h -12.58 v -4.59 H -2.822 V 10.506 H -12.954 V 4.386 L 0,4.386 Z"
             style="fill:#1d2d61;fill-opacity:1;fill-rule:nonzero;stroke:none"
             id="path140"
             inkscape:connector-curvature="0" /></g><g
           id="g142"
           transform="translate(508.6123,864.0859)"
           inkscape:export-filename="/home/nikita/comm-su/public/comm_logo_ru.png"
           inkscape:export-xdpi="54.150002"
           inkscape:export-ydpi="54.150002"><path
             d="M 0,0 H 5.712 L 10.71,-7.105 15.776,0 H 21.42 L 13.566,-10.948 22.813,-23.8 h -5.711 l -6.46,8.874 -6.426,-8.874 h -5.644 l 9.282,12.819 z"
             style="fill:#1d2d61;fill-opacity:1;fill-rule:nonzero;stroke:none"
             id="path144"
             inkscape:connector-curvature="0" /></g><g
           id="g146"
           transform="translate(379.3115,803.8105)"
           inkscape:export-filename="/home/nikita/comm-su/public/comm_logo_ru.png"
           inkscape:export-xdpi="54.150002"
           inkscape:export-ydpi="54.150002"><path
             d="m 0,0 c -3.695,0 -6.767,1.155 -9.214,3.468 -2.448,2.357 -3.673,5.326 -3.673,8.908 0,3.626 1.213,6.596 3.639,8.907 2.448,2.313 5.53,3.469 9.248,3.469 2.312,0 4.408,-0.499 6.29,-1.496 v -4.931 c -1.836,1.225 -3.922,1.836 -6.256,1.836 -2.244,0 -4.138,-0.736 -5.679,-2.21 -1.496,-1.45 -2.244,-3.309 -2.244,-5.575 0,-2.268 0.771,-4.138 2.313,-5.61 1.518,-1.452 3.456,-2.176 5.813,-2.176 2.607,0 4.784,0.69 6.529,2.074 V 1.733 C 4.839,0.577 2.584,0 0,0"
             style="fill:#1d2d61;fill-opacity:1;fill-rule:nonzero;stroke:none"
             id="path148"
             inkscape:connector-curvature="0" /></g><g
           id="g150"
           transform="translate(395.835,810.6104)"
           inkscape:export-filename="/home/nikita/comm-su/public/comm_logo_ru.png"
           inkscape:export-xdpi="54.150002"
           inkscape:export-ydpi="54.150002"><path
             d="m 0,0 c 1.405,-1.474 3.162,-2.21 5.271,-2.21 2.084,0 3.83,0.736 5.235,2.21 1.405,1.473 2.108,3.332 2.108,5.576 0,2.243 -0.703,4.102 -2.108,5.575 -1.405,1.474 -3.151,2.21 -5.235,2.21 C 3.162,13.361 1.405,12.625 0,11.151 -1.383,9.701 -2.074,7.842 -2.074,5.576 -2.074,3.309 -1.383,1.45 0,0 m -7.072,5.576 c 0,3.49 1.168,6.414 3.503,8.772 2.334,2.402 5.28,3.604 8.84,3.604 3.536,0 6.47,-1.202 8.805,-3.604 2.358,-2.403 3.536,-5.327 3.536,-8.772 0,-3.423 -1.178,-6.347 -3.536,-8.772 C 11.741,-5.599 8.807,-6.8 5.271,-6.8 c -3.56,0 -6.506,1.201 -8.84,3.604 -2.335,2.402 -3.503,5.326 -3.503,8.772"
             style="fill:#1d2d61;fill-opacity:1;fill-rule:nonzero;stroke:none"
             id="path152"
             inkscape:connector-curvature="0" /></g><g
           id="g154"
           transform="translate(422.4229,804.2861)"
           inkscape:export-filename="/home/nikita/comm-su/public/comm_logo_ru.png"
           inkscape:export-xdpi="54.150002"
           inkscape:export-ydpi="54.150002"><path
             d="m 0,0 h -4.896 v 23.8 h 4.862 l 6.901,-9.86 6.903,9.86 h 4.828 V 0 H 13.77 V 16.286 L 8.296,8.636 H 5.575 L 0,16.286 Z"
             style="fill:#1d2d61;fill-opacity:1;fill-rule:nonzero;stroke:none"
             id="path156"
             inkscape:connector-curvature="0" /></g><g
           id="g158"
           transform="translate(450.8467,804.2861)"
           inkscape:export-filename="/home/nikita/comm-su/public/comm_logo_ru.png"
           inkscape:export-xdpi="54.150002"
           inkscape:export-ydpi="54.150002"><path
             d="m 0,0 h -4.896 v 23.8 h 4.862 l 6.901,-9.86 6.903,9.86 h 4.828 V 0 H 13.77 V 16.286 L 8.296,8.636 H 5.575 L 0,16.286 Z"
             style="fill:#1d2d61;fill-opacity:1;fill-rule:nonzero;stroke:none"
             id="path160"
             inkscape:connector-curvature="0" /></g><g
           id="g162"
           transform="translate(484.2344,803.8105)"
           inkscape:export-filename="/home/nikita/comm-su/public/comm_logo_ru.png"
           inkscape:export-xdpi="54.150002"
           inkscape:export-ydpi="54.150002"><path
             d="m 0,0 c -2.97,0 -5.406,0.918 -7.311,2.754 -1.903,1.836 -2.855,4.408 -2.855,7.718 v 13.803 h 4.861 V 10.302 c 0,-1.836 0.482,-3.247 1.446,-4.234 C -2.896,5.083 -1.61,4.59 0,4.59 c 1.632,0 2.929,0.493 3.893,1.478 0.962,0.987 1.445,2.398 1.445,4.234 v 13.973 h 4.895 V 10.472 C 10.233,7.162 9.271,4.59 7.344,2.754 5.439,0.918 2.992,0 0,0"
             style="fill:#1d2d61;fill-opacity:1;fill-rule:nonzero;stroke:none"
             id="path164"
             inkscape:connector-curvature="0" /></g><g
           id="g166"
           transform="translate(503.8174,804.2861)"
           inkscape:export-filename="/home/nikita/comm-su/public/comm_logo_ru.png"
           inkscape:export-xdpi="54.150002"
           inkscape:export-ydpi="54.150002"><path
             d="m 0,0 h -4.794 v 23.8 h 4.182 L 11.39,8.568 V 23.8 h 4.76 V 0 H 12.104 L 0,15.3 Z"
             style="fill:#1d2d61;fill-opacity:1;fill-rule:nonzero;stroke:none"
             id="path168"
             inkscape:connector-curvature="0" /></g><path
           d="m 529.93,804.286 h -4.862 v 23.8 h 4.862 z"
           style="fill:#1d2d61;fill-opacity:1;fill-rule:nonzero;stroke:none"
           id="path170"
           inkscape:connector-curvature="0"
           inkscape:export-filename="/home/nikita/comm-su/public/comm_logo_ru.png"
           inkscape:export-xdpi="54.150002"
           inkscape:export-ydpi="54.150002" /><g
           id="g172"
           transform="translate(547.0654,803.8105)"
           inkscape:export-filename="/home/nikita/comm-su/public/comm_logo_ru.png"
           inkscape:export-xdpi="54.150002"
           inkscape:export-ydpi="54.150002"><path
             d="m 0,0 c -3.695,0 -6.767,1.155 -9.214,3.468 -2.448,2.357 -3.673,5.326 -3.673,8.908 0,3.626 1.213,6.596 3.639,8.907 2.448,2.313 5.53,3.469 9.248,3.469 2.312,0 4.408,-0.499 6.29,-1.496 v -4.931 c -1.836,1.225 -3.922,1.836 -6.256,1.836 -2.244,0 -4.138,-0.736 -5.679,-2.21 -1.496,-1.45 -2.244,-3.309 -2.244,-5.575 0,-2.268 0.771,-4.138 2.313,-5.61 1.518,-1.452 3.456,-2.176 5.813,-2.176 2.607,0 4.784,0.69 6.529,2.074 V 1.733 C 4.839,0.577 2.584,0 0,0"
             style="fill:#1d2d61;fill-opacity:1;fill-rule:nonzero;stroke:none"
             id="path174"
             inkscape:connector-curvature="0" /></g><g
           id="g176"
           transform="translate(568.1104,822.1025)"
           inkscape:export-filename="/home/nikita/comm-su/public/comm_logo_ru.png"
           inkscape:export-xdpi="54.150002"
           inkscape:export-ydpi="54.150002"><path
             d="m 0,0 -3.502,-8.263 h 6.97 z m -7.378,-17.816 h -5.134 l 10.2,23.935 H 2.38 l 10.2,-23.935 H 7.378 l -2.346,5.507 H -5.032 Z"
             style="fill:#1d2d61;fill-opacity:1;fill-rule:nonzero;stroke:none"
             id="path178"
             inkscape:connector-curvature="0" /></g><g
           id="g180"
           transform="translate(578.5146,823.7002)"
           inkscape:export-filename="/home/nikita/comm-su/public/comm_logo_ru.png"
           inkscape:export-xdpi="54.150002"
           inkscape:export-ydpi="54.150002"><path
             d="M 0,0 V 4.386 H 19.958 V 0 H 12.41 V -19.414 H 7.515 L 7.515,0 Z"
             style="fill:#1d2d61;fill-opacity:1;fill-rule:nonzero;stroke:none"
             id="path182"
             inkscape:connector-curvature="0" /></g><path
           d="m 606.802,804.286 h -4.861 v 23.8 h 4.861 z"
           style="fill:#1d2d61;fill-opacity:1;fill-rule:nonzero;stroke:none"
           id="path184"
           inkscape:connector-curvature="0"
           inkscape:export-filename="/home/nikita/comm-su/public/comm_logo_ru.png"
           inkscape:export-xdpi="54.150002"
           inkscape:export-ydpi="54.150002" /><g
           id="g186"
           transform="translate(618.124,810.6104)"
           inkscape:export-filename="/home/nikita/comm-su/public/comm_logo_ru.png"
           inkscape:export-xdpi="54.150002"
           inkscape:export-ydpi="54.150002"><path
             d="m 0,0 c 1.405,-1.474 3.162,-2.21 5.27,-2.21 2.084,0 3.83,0.736 5.236,2.21 1.405,1.473 2.107,3.332 2.107,5.576 0,2.243 -0.702,4.102 -2.107,5.575 C 9.1,12.625 7.354,13.361 5.27,13.361 3.162,13.361 1.405,12.625 0,11.151 -1.383,9.701 -2.074,7.842 -2.074,5.576 -2.074,3.309 -1.383,1.45 0,0 m -7.072,5.576 c 0,3.49 1.167,6.414 3.502,8.772 2.334,2.402 5.281,3.604 8.84,3.604 3.536,0 6.471,-1.202 8.806,-3.604 2.357,-2.403 3.535,-5.327 3.535,-8.772 0,-3.423 -1.178,-6.347 -3.535,-8.772 C 11.741,-5.599 8.806,-6.8 5.27,-6.8 c -3.559,0 -6.506,1.201 -8.84,3.604 -2.335,2.402 -3.502,5.326 -3.502,8.772"
             style="fill:#1d2d61;fill-opacity:1;fill-rule:nonzero;stroke:none"
             id="path188"
             inkscape:connector-curvature="0" /></g><g
           id="g190"
           transform="translate(644.6094,804.2861)"
           inkscape:export-filename="/home/nikita/comm-su/public/comm_logo_ru.png"
           inkscape:export-xdpi="54.150002"
           inkscape:export-ydpi="54.150002"><path
             d="m 0,0 h -4.794 v 23.8 h 4.182 L 11.39,8.568 V 23.8 h 4.76 V 0 H 12.104 L 0,15.3 Z"
             style="fill:#1d2d61;fill-opacity:1;fill-rule:nonzero;stroke:none"
             id="path192"
             inkscape:connector-curvature="0" /></g><g
           id="g194"
           transform="translate(673.5771,803.8105)"
           inkscape:export-filename="/home/nikita/comm-su/public/comm_logo_ru.png"
           inkscape:export-xdpi="54.150002"
           inkscape:export-ydpi="54.150002"><path
             d="m 0,0 c -3.582,0 -6.596,0.85 -9.044,2.55 v 5.099 c 0.997,-0.861 2.312,-1.609 3.943,-2.244 1.656,-0.611 3.288,-0.918 4.897,-0.918 1.337,0 2.436,0.243 3.298,0.732 0.861,0.487 1.292,1.161 1.292,2.022 0,0.93 -0.408,1.587 -1.224,1.973 -0.34,0.204 -0.794,0.408 -1.36,0.611 l -0.816,0.273 -1.904,0.578 -1.769,0.578 c -0.249,0.067 -0.781,0.26 -1.597,0.578 -0.703,0.272 -1.213,0.51 -1.53,0.714 -1.179,0.815 -1.927,1.507 -2.244,2.073 -0.545,1.089 -0.816,2.199 -0.816,3.332 0,2.109 0.805,3.763 2.414,4.965 1.609,1.224 3.796,1.836 6.562,1.836 2.788,0 5.383,-0.658 7.786,-1.973 V 18.02 c -2.426,1.496 -4.998,2.244 -7.718,2.244 -2.697,0 -4.046,-0.783 -4.046,-2.346 0,-0.681 0.419,-1.225 1.258,-1.633 0.498,-0.271 1.144,-0.51 1.938,-0.714 C 0.385,15.276 1.246,15.027 1.904,14.823 3.876,14.212 5.599,13.384 7.072,12.342 8.658,11.23 9.452,9.576 9.452,7.378 9.452,5.088 8.557,3.286 6.766,1.972 4.975,0.657 2.72,0 0,0"
             style="fill:#1d2d61;fill-opacity:1;fill-rule:nonzero;stroke:none"
             id="path196"
             inkscape:connector-curvature="0" /></g><g
           id="g198"
           transform="translate(370.5859,289.2803)"><path
             d="M 0,0 C 0,7.644 -4.168,14.327 -10.347,17.912 L -11.271,17.041 -24.052,4.981 V 38.214 H -38.786 V -41.84 h 14.734 v 37.533 l 12.781,-12.058 1.366,-1.288 C -3.969,-14.011 0,-7.46 0,0"
             style="fill:#2d6dc5;fill-opacity:1;fill-rule:nonzero;stroke:none"
             id="path200"
             inkscape:connector-curvature="0" /></g><g
           id="g202"
           transform="translate(373.1084,319.335)"><path
             d="m 0,0 -8.976,-8.469 c 7,-4.635 11.629,-12.579 11.629,-21.586 0,-8.826 -4.445,-16.631 -11.212,-21.302 l 8.951,-8.445 C 9.15,-52.835 14.776,-42.09 14.776,-30.055 14.776,-17.841 8.982,-6.956 0,0"
             style="fill:#2695df;fill-opacity:1;fill-rule:nonzero;stroke:none"
             id="path204"
             inkscape:connector-curvature="0" /></g><g
           id="g206"
           transform="translate(385.791,331.3008)"><path
             d="m 0,0 -8.879,-8.377 c 9.84,-7.92 16.149,-20.058 16.149,-33.644 0,-13.407 -6.143,-25.406 -15.762,-33.331 l 8.868,-8.366 c 11.645,10.146 19.018,25.076 19.018,41.697 C 19.394,-25.221 11.861,-10.15 0,0"
             style="fill:#84c1ed;fill-opacity:1;fill-rule:nonzero;stroke:none"
             id="path208"
             inkscape:connector-curvature="0" /></g><g
           id="g210"
           transform="translate(208.9512,313.9277)"><path
             d="m 0,0 h 16.72 c 2.567,0 4.849,-0.278 6.782,-0.829 1.755,-0.501 3.225,-1.182 4.368,-2.021 1.004,-0.74 1.744,-1.585 2.264,-2.582 0.518,-1.001 0.77,-2.113 0.77,-3.401 0,-1.316 -0.251,-2.441 -0.77,-3.438 -0.508,-0.978 -1.24,-1.81 -2.238,-2.542 -1.141,-0.835 -2.621,-1.514 -4.398,-2.018 -1.929,-0.551 -4.21,-0.83 -6.783,-0.83 L 0,-17.661 Z M 18.523,-52.922 H 0.005 v 21.695 H 18.52 c 2.983,0 5.655,-0.328 7.936,-0.974 2.11,-0.603 3.876,-1.423 5.248,-2.437 1.252,-0.922 2.174,-1.974 2.819,-3.217 0.652,-1.256 0.968,-2.634 0.968,-4.214 v -0.003 c 0.004,-1.616 -0.31,-3.01 -0.964,-4.265 -0.635,-1.23 -1.548,-2.267 -2.791,-3.171 -1.397,-1.017 -3.172,-1.837 -5.274,-2.435 -2.275,-0.65 -4.945,-0.979 -7.939,-0.979 m 17.835,29.2 c 2.992,1.568 7.583,4.858 8.846,10.69 0.299,1.457 0.444,2.832 0.444,4.204 0,3.304 -0.743,6.417 -2.211,9.255 -1.48,2.842 -3.615,5.302 -6.347,7.312 -2.585,1.908 -5.688,3.387 -9.223,4.394 -3.35,0.954 -7.099,1.437 -11.143,1.437 h -31.453 v -80.049 h 33.252 c 4.465,0 8.603,0.533 12.299,1.583 3.86,1.1 7.247,2.7 10.069,4.754 2.991,2.176 5.325,4.854 6.935,7.958 1.599,3.079 2.408,6.482 2.408,10.115 0,2.355 -0.38,4.697 -1.137,6.979 -2.632,7.352 -9.007,10.265 -12.739,11.368"
             style="fill:#2d6dc5;fill-opacity:1;fill-rule:nonzero;stroke:none"
             id="path212"
             inkscape:connector-curvature="0" /></g><g
           id="g214"
           transform="translate(291.0098,265.8506)"><path
             d="m 0,0 -24.531,61.067 -0.232,0.577 H -40.477 L -8.315,-18.41 H 8.315 L 40.481,61.644 H 24.768 Z"
             style="fill:#2d6dc5;fill-opacity:1;fill-rule:nonzero;stroke:none"
             id="path216"
             inkscape:connector-curvature="0" /></g><g
           id="g218"
           transform="translate(209.9453,829.2363)"
           inkscape:export-filename="/home/nikita/comm-su/public/favicon.ico.png"
           inkscape:export-xdpi="54.947693"
           inkscape:export-ydpi="54.947693"><path
             d="m 0,0 39.784,-37.533 h 20.59 L 15.668,4.645 55.812,42.521 H 35.221 L 0,9.289 V 42.521 H -14.734 V -37.533 H 0 Z"
             style="fill:#2d6dc5;fill-opacity:1;fill-rule:nonzero;stroke:none"
             id="path220"
             inkscape:connector-curvature="0" /></g><g
           id="g222"
           transform="translate(308.998,833.5439)"
           inkscape:export-filename="/home/nikita/comm-su/public/favicon.ico.png"
           inkscape:export-xdpi="54.947693"
           inkscape:export-ydpi="54.947693"><path
             d="m 0,0 c 0,7.644 -4.168,14.327 -10.347,17.912 l -0.924,-0.871 -12.781,-12.06 v 33.233 h -14.734 v -80.055 h 14.734 v 37.533 l 12.781,-12.057 1.366,-1.288 C -3.969,-14.011 0,-7.461 0,0"
             style="fill:#2d6dc5;fill-opacity:1;fill-rule:nonzero;stroke:none"
             id="path224"
             inkscape:connector-curvature="0" /></g><g
           id="g226"
           transform="translate(311.5205,863.5986)"
           inkscape:export-filename="/home/nikita/comm-su/public/favicon.ico.png"
           inkscape:export-xdpi="54.947693"
           inkscape:export-ydpi="54.947693"><path
             d="m 0,0 -8.977,-8.47 c 7.001,-4.635 11.63,-12.578 11.63,-21.585 0,-8.826 -4.445,-16.631 -11.213,-21.302 l 8.952,-8.445 C 9.15,-52.835 14.776,-42.09 14.776,-30.055 14.776,-17.841 8.982,-6.956 0,0"
             style="fill:#2695df;fill-opacity:1;fill-rule:nonzero;stroke:none"
             id="path228"
             inkscape:connector-curvature="0" /></g><g
           id="g230"
           transform="translate(324.2021,875.5645)"
           inkscape:export-filename="/home/nikita/comm-su/public/favicon.ico.png"
           inkscape:export-xdpi="54.947693"
           inkscape:export-ydpi="54.947693"><path
             d="m 0,0 -8.879,-8.378 c 9.84,-7.92 16.15,-20.058 16.15,-33.643 0,-13.407 -6.144,-25.406 -15.763,-33.331 l 8.868,-8.366 c 11.645,10.146 19.019,25.076 19.019,41.697 C 19.395,-25.222 11.862,-10.15 0,0"
             style="fill:#84c1ed;fill-opacity:1;fill-rule:nonzero;stroke:none"
             id="path232"
             inkscape:connector-curvature="0" /></g><g
           id="g234"
           transform="translate(194.375,600.8545)"><path
             d="m 0,0 v -80.054 h 14.735 v 37.533 l 39.784,-37.533 h 20.59 L 30.403,-37.876 70.546,0 H 49.956 L 14.735,-33.232 V 0 Z"
             style="fill:#2d6dc5;fill-opacity:1;fill-rule:nonzero;stroke:none"
             id="path236"
             inkscape:connector-curvature="0" /></g><g
           id="g238"
           transform="translate(277.917,561.1953)"><path
             d="m 0,0 c 0,10.349 -5.822,19.359 -14.36,23.938 -5.267,-6.728 -8.378,-15 -8.378,-23.935 0,-8.938 3.112,-17.211 8.379,-23.94 C -5.821,-19.358 0,-10.348 0,0"
             style="fill:#2d6dc5;fill-opacity:1;fill-rule:nonzero;stroke:none"
             id="path240"
             inkscape:connector-curvature="0" /></g><g
           id="g242"
           transform="translate(300.0156,601.9902)"><path
             d="m 0,0 c -0.301,0.006 -0.601,0.011 -0.901,0.011 -12.315,0 -23.459,-4.732 -31.444,-12.337 9.702,-5.781 16.217,-16.378 16.217,-28.469 0,-12.09 -6.515,-22.686 -16.216,-28.468 7.985,-7.605 19.129,-12.337 31.443,-12.337 0.3,0 0.6,0.005 0.901,0.011 9.195,11.081 14.731,25.303 14.731,40.794 C 14.731,-25.304 9.195,-11.081 0,0"
             style="fill:#2695df;fill-opacity:1;fill-rule:nonzero;stroke:none"
             id="path244"
             inkscape:connector-curvature="0" /></g><g
           id="g246"
           transform="translate(343.0488,561.1982)"><path
             d="m 0,0 c 0,19.618 -14.986,36.045 -34.885,39.93 7.907,-11.33 12.553,-25.098 12.553,-39.933 0,-14.834 -4.646,-28.601 -12.553,-39.933 C -14.986,-36.05 0,-19.621 0,0"
             style="fill:#84c1ed;fill-opacity:1;fill-rule:nonzero;stroke:none"
             id="path248"
             inkscape:connector-curvature="0" /></g><path
           d="M 1920,0 H 945.852 V 1080 H 1920 Z"
           style="fill:#1d2d61;fill-opacity:1;fill-rule:nonzero;stroke:none"
           id="path250"
           inkscape:connector-curvature="0" /><g
           id="g252"
           transform="translate(1375.4561,566.3525)"><path
             d="m 0,0 c -3.694,0 -6.767,1.155 -9.214,3.468 -2.448,2.357 -3.672,5.326 -3.672,8.908 0,3.626 1.212,6.596 3.638,8.907 2.448,2.313 5.53,3.469 9.248,3.469 2.312,0 4.408,-0.499 6.29,-1.496 v -4.931 c -1.836,1.225 -3.922,1.836 -6.256,1.836 -2.244,0 -4.137,-0.736 -5.678,-2.21 -1.496,-1.45 -2.244,-3.309 -2.244,-5.575 0,-2.268 0.77,-4.138 2.312,-5.61 1.518,-1.452 3.456,-2.176 5.813,-2.176 2.608,0 4.784,0.69 6.53,2.074 V 1.733 C 4.839,0.577 2.584,0 0,0"
             style="fill:#ffffff;fill-opacity:1;fill-rule:nonzero;stroke:none"
             id="path254"
             inkscape:connector-curvature="0" /></g><g
           id="g256"
           transform="translate(1391.9805,573.1523)"><path
             d="m 0,0 c 1.404,-1.474 3.162,-2.21 5.27,-2.21 2.084,0 3.83,0.736 5.236,2.21 1.404,1.473 2.107,3.332 2.107,5.576 0,2.243 -0.703,4.102 -2.107,5.575 C 9.1,12.625 7.354,13.361 5.27,13.361 3.162,13.361 1.404,12.625 0,11.151 -1.383,9.701 -2.074,7.842 -2.074,5.576 -2.074,3.309 -1.383,1.45 0,0 m -7.072,5.576 c 0,3.49 1.167,6.414 3.502,8.772 2.334,2.402 5.281,3.604 8.84,3.604 3.536,0 6.47,-1.202 8.806,-3.604 2.357,-2.403 3.535,-5.327 3.535,-8.772 0,-3.423 -1.178,-6.347 -3.535,-8.772 C 11.74,-5.599 8.806,-6.8 5.27,-6.8 c -3.559,0 -6.506,1.201 -8.84,3.604 -2.335,2.402 -3.502,5.326 -3.502,8.772"
             style="fill:#ffffff;fill-opacity:1;fill-rule:nonzero;stroke:none"
             id="path258"
             inkscape:connector-curvature="0" /></g><g
           id="g260"
           transform="translate(1418.4648,566.8281)"><path
             d="m 0,0 h -4.793 v 23.8 h 4.182 L 11.391,8.568 V 23.8 H 16.15 L 16.15,0 H 12.104 L 0,15.3 Z"
             style="fill:#ffffff;fill-opacity:1;fill-rule:nonzero;stroke:none"
             id="path262"
             inkscape:connector-curvature="0" /></g><g
           id="g264"
           transform="translate(1437.9473,586.2422)"><path
             d="M 0,0 V 4.386 H 19.958 V 0 H 12.41 V -19.414 H 7.514 L 7.514,0 Z"
             style="fill:#ffffff;fill-opacity:1;fill-rule:nonzero;stroke:none"
             id="path266"
             inkscape:connector-curvature="0" /></g><g
           id="g268"
           transform="translate(1466.0996,586.3437)"><path
             d="m 0,0 v -5.779 h 5.848 c 1.109,0 1.976,0.249 2.6,0.748 0.623,0.498 0.935,1.212 0.935,2.141 0,0.907 -0.312,1.616 -0.935,2.125 C 7.824,-0.255 6.957,0 5.848,0 Z m 0,-19.516 h -4.896 v 23.8 H 6.119 c 2.539,0 4.533,-0.657 5.985,-1.971 1.472,-1.292 2.209,-2.982 2.209,-5.067 0,-1.587 -0.436,-2.964 -1.309,-4.131 -0.873,-1.168 -2.08,-1.989 -3.621,-2.465 l 7.345,-10.166 H 11.049 L 4.113,-9.894 H 0 Z"
             style="fill:#ffffff;fill-opacity:1;fill-rule:nonzero;stroke:none"
             id="path270"
             inkscape:connector-curvature="0" /></g><g
           id="g272"
           transform="translate(1496.1211,584.6445)"><path
             d="m 0,0 -3.502,-8.263 h 6.969 z m -7.379,-17.816 h -5.134 l 10.2,23.935 H 2.379 L 12.58,-17.816 H 7.377 l -2.346,5.507 H -5.033 Z"
             style="fill:#ffffff;fill-opacity:1;fill-rule:nonzero;stroke:none"
             id="path274"
             inkscape:connector-curvature="0" /></g><g
           id="g276"
           transform="translate(1521.8926,566.3525)"><path
             d="m 0,0 c -3.695,0 -6.766,1.155 -9.214,3.468 -2.448,2.357 -3.673,5.326 -3.673,8.908 0,3.626 1.213,6.596 3.639,8.907 2.448,2.313 5.53,3.469 9.248,3.469 2.313,0 4.408,-0.499 6.29,-1.496 v -4.931 c -1.836,1.225 -3.922,1.836 -6.256,1.836 -2.244,0 -4.138,-0.736 -5.679,-2.21 -1.496,-1.45 -2.244,-3.309 -2.244,-5.575 0,-2.268 0.772,-4.138 2.313,-5.61 1.518,-1.452 3.457,-2.176 5.814,-2.176 2.606,0 4.783,0.69 6.528,2.074 V 1.733 C 4.84,0.577 2.584,0 0,0"
             style="fill:#ffffff;fill-opacity:1;fill-rule:nonzero;stroke:none"
             id="path278"
             inkscape:connector-curvature="0" /></g><g
           id="g280"
           transform="translate(1530.9023,586.2422)"><path
             d="M 0,0 V 4.386 H 19.958 V 0 H 12.41 V -19.414 H 7.514 L 7.514,0 Z"
             style="fill:#ffffff;fill-opacity:1;fill-rule:nonzero;stroke:none"
             id="path282"
             inkscape:connector-curvature="0" /></g><g
           id="g284"
           transform="translate(1558.7148,573.1523)"><path
             d="m 0,0 c 1.404,-1.474 3.162,-2.21 5.27,-2.21 2.084,0 3.83,0.736 5.236,2.21 1.404,1.473 2.107,3.332 2.107,5.576 0,2.243 -0.703,4.102 -2.107,5.575 C 9.1,12.625 7.354,13.361 5.27,13.361 3.162,13.361 1.404,12.625 0,11.151 -1.383,9.701 -2.074,7.842 -2.074,5.576 -2.074,3.309 -1.383,1.45 0,0 m -7.072,5.576 c 0,3.49 1.167,6.414 3.502,8.772 2.334,2.402 5.281,3.604 8.84,3.604 3.536,0 6.47,-1.202 8.806,-3.604 2.357,-2.403 3.535,-5.327 3.535,-8.772 0,-3.423 -1.178,-6.347 -3.535,-8.772 C 11.74,-5.599 8.806,-6.8 5.27,-6.8 c -3.559,0 -6.506,1.201 -8.84,3.604 -2.335,2.402 -3.502,5.326 -3.502,8.772"
             style="fill:#ffffff;fill-opacity:1;fill-rule:nonzero;stroke:none"
             id="path286"
             inkscape:connector-curvature="0" /></g><g
           id="g288"
           transform="translate(1585.3018,586.3437)"><path
             d="m 0,0 v -5.779 h 5.848 c 1.11,0 1.977,0.249 2.6,0.748 0.623,0.498 0.936,1.212 0.936,2.141 0,0.907 -0.313,1.616 -0.936,2.125 C 7.825,-0.255 6.958,0 5.848,0 Z m 0,-19.516 h -4.896 v 23.8 H 6.12 c 2.538,0 4.533,-0.657 5.984,-1.971 1.473,-1.292 2.209,-2.982 2.209,-5.067 0,-1.587 -0.436,-2.964 -1.308,-4.131 -0.873,-1.168 -2.08,-1.989 -3.621,-2.465 l 7.344,-10.166 H 11.05 L 4.114,-9.894 H 0 Z"
             style="fill:#ffffff;fill-opacity:1;fill-rule:nonzero;stroke:none"
             id="path290"
             inkscape:connector-curvature="0" /></g><g
           id="g292"
           transform="translate(1612.7734,566.3525)"><path
             d="M 0,0 C -3.582,0 -6.596,0.85 -9.044,2.55 V 7.649 C -8.047,6.788 -6.732,6.04 -5.1,5.405 c 1.655,-0.611 3.287,-0.918 4.896,-0.918 1.337,0 2.436,0.243 3.298,0.732 0.861,0.487 1.293,1.161 1.293,2.022 0,0.93 -0.408,1.587 -1.225,1.973 -0.34,0.204 -0.793,0.408 -1.359,0.611 l -0.817,0.273 -1.904,0.578 -1.768,0.578 c -0.25,0.067 -0.782,0.26 -1.597,0.578 -0.703,0.272 -1.213,0.51 -1.531,0.714 -1.178,0.815 -1.926,1.507 -2.244,2.073 -0.544,1.089 -0.816,2.199 -0.816,3.332 0,2.109 0.805,3.763 2.414,4.965 1.609,1.224 3.796,1.836 6.562,1.836 2.789,0 5.383,-0.658 7.787,-1.973 V 18.02 c -2.426,1.496 -4.998,2.244 -7.719,2.244 -2.697,0 -4.046,-0.783 -4.046,-2.346 0,-0.681 0.419,-1.225 1.259,-1.633 0.498,-0.271 1.143,-0.51 1.937,-0.714 C 0.385,15.276 1.246,15.027 1.904,14.823 3.876,14.212 5.599,13.384 7.072,12.342 8.658,11.23 9.452,9.576 9.452,7.378 9.452,5.088 8.557,3.286 6.766,1.972 4.975,0.657 2.721,0 0,0"
             style="fill:#ffffff;fill-opacity:1;fill-rule:nonzero;stroke:none"
             id="path294"
             inkscape:connector-curvature="0" /></g><g
           id="g296"
           transform="translate(1369.6426,537.1523)"><path
             d="m 0,0 c 1.404,-1.474 3.162,-2.21 5.27,-2.21 2.084,0 3.83,0.736 5.236,2.21 1.404,1.473 2.107,3.332 2.107,5.576 0,2.243 -0.703,4.102 -2.107,5.575 C 9.1,12.625 7.354,13.361 5.27,13.361 3.162,13.361 1.404,12.625 0,11.151 -1.383,9.701 -2.074,7.842 -2.074,5.576 -2.074,3.309 -1.383,1.45 0,0 m -7.072,5.576 c 0,3.49 1.167,6.414 3.502,8.772 2.334,2.402 5.281,3.604 8.84,3.604 3.536,0 6.47,-1.202 8.806,-3.604 2.357,-2.403 3.535,-5.327 3.535,-8.772 0,-3.423 -1.178,-6.347 -3.535,-8.772 C 11.74,-5.599 8.806,-6.8 5.27,-6.8 c -3.559,0 -6.506,1.201 -8.84,3.604 -2.335,2.402 -3.502,5.326 -3.502,8.772"
             style="fill:#ffffff;fill-opacity:1;fill-rule:nonzero;stroke:none"
             id="path298"
             inkscape:connector-curvature="0" /></g><g
           id="g300"
           transform="translate(1396.127,530.8281)"><path
             d="m 0,0 h -4.793 v 23.8 h 4.182 L 11.391,8.568 V 23.8 H 16.15 L 16.15,0 H 12.104 L 0,15.3 Z"
             style="fill:#ffffff;fill-opacity:1;fill-rule:nonzero;stroke:none"
             id="path302"
             inkscape:connector-curvature="0" /></g><g
           id="g304"
           transform="translate(1434.1738,530.8281)"><path
             d="m 0,0 h -16.967 v 23.8 h 4.897 V 4.386 l 12.07,0 z"
             style="fill:#ffffff;fill-opacity:1;fill-rule:nonzero;stroke:none"
             id="path306"
             inkscape:connector-curvature="0" /></g><path
           d="m 1442.401,530.828 h -4.862 v 23.8 h 4.862 z"
           style="fill:#ffffff;fill-opacity:1;fill-rule:nonzero;stroke:none"
           id="path308"
           inkscape:connector-curvature="0" /><g
           id="g310"
           transform="translate(1452.2617,530.8281)"><path
             d="m 0,0 h -4.795 v 23.8 h 4.182 L 11.389,8.568 V 23.8 h 4.76 V 0 H 12.104 L 0,15.3 Z"
             style="fill:#ffffff;fill-opacity:1;fill-rule:nonzero;stroke:none"
             id="path312"
             inkscape:connector-curvature="0" /></g><g
           id="g314"
           transform="translate(1491.1914,530.8281)"><path
             d="m 0,0 h -17.85 v 23.8 h 17.476 v -4.386 h -12.58 v -4.59 H -2.822 V 10.506 H -12.954 V 4.386 L 0,4.386 Z"
             style="fill:#ffffff;fill-opacity:1;fill-rule:nonzero;stroke:none"
             id="path316"
             inkscape:connector-curvature="0" /></g><g
           id="g318"
           transform="translate(1431.2852,302.5664)"><path
             d="m 0,0 v -6.223 h 6.153 c 1.224,0 2.177,0.267 2.857,0.799 0.679,0.532 1.019,1.298 1.019,2.295 0,0.998 -0.34,1.769 -1.019,2.313 C 8.33,-0.272 7.377,0 6.153,0 Z M 0,9.281 V 4.046 h 5.508 c 1.019,0 1.818,0.225 2.396,0.68 0.578,0.453 0.867,1.087 0.867,1.904 0,0.838 -0.289,1.49 -0.867,1.955 C 7.326,9.049 6.527,9.281 5.508,9.281 Z M 7.071,-10.438 H -4.896 V 13.361 H 6.289 c 2.199,0 3.949,-0.521 5.254,-1.563 1.303,-1.043 1.955,-2.505 1.955,-4.387 0,-1.155 -0.284,-2.141 -0.851,-2.958 -0.567,-0.815 -1.28,-1.405 -2.141,-1.767 1.291,-0.273 2.425,-0.975 3.399,-2.109 0.952,-1.11 1.429,-2.527 1.429,-4.25 0,-2.017 -0.748,-3.649 -2.244,-4.895 -1.475,-1.247 -3.481,-1.87 -6.019,-1.87"
             style="fill:#ffffff;fill-opacity:1;fill-rule:nonzero;stroke:none"
             id="path320"
             inkscape:connector-curvature="0" /></g><g
           id="g322"
           transform="translate(1461.9863,291.9922)"><path
             d="m 0,0 h -4.624 l -9.996,23.936 h 5.406 L -2.277,6.8 4.691,23.936 h 5.305 z"
             style="fill:#ffffff;fill-opacity:1;fill-rule:nonzero;stroke:none"
             id="path324"
             inkscape:connector-curvature="0" /></g><g
           id="g326"
           transform="translate(1479.7676,292.1279)"><path
             d="M 0,0 H -4.896 V 23.8 H 0 V 14.416 L 8.772,23.8 h 5.984 L 4.658,12.886 16.49,0 H 10.234 L 0,10.982 Z"
             style="fill:#ffffff;fill-opacity:1;fill-rule:nonzero;stroke:none"
             id="path328"
             inkscape:connector-curvature="0" /></g><g
           id="g330"
           transform="translate(1438.2539,255.6523)"><path
             d="m 0,0 c -3.627,0 -6.641,1.155 -9.043,3.468 -2.426,2.357 -3.639,5.326 -3.639,8.908 0,3.626 1.213,6.596 3.639,8.907 2.402,2.313 5.474,3.469 9.213,3.469 2.743,0 5.123,-0.602 7.141,-1.803 v -4.827 c -2.2,1.359 -4.466,2.039 -6.8,2.039 -2.426,0 -4.398,-0.725 -5.916,-2.176 -1.519,-1.427 -2.279,-3.332 -2.279,-5.712 0,-2.357 0.737,-4.238 2.21,-5.643 C -4,5.224 -2.176,4.521 0,4.521 c 2.086,0 3.684,0.522 4.795,1.565 v 8.193 H 9.69 V 3.773 C 8.67,2.686 7.311,1.79 5.611,1.088 3.843,0.362 1.973,0 0,0"
             style="fill:#ffffff;fill-opacity:1;fill-rule:nonzero;stroke:none"
             id="path332"
             inkscape:connector-curvature="0" /></g><g
           id="g334"
           transform="translate(1457.0234,275.6436)"><path
             d="m 0,0 v -5.779 h 5.848 c 1.109,0 1.976,0.249 2.6,0.748 0.623,0.498 0.935,1.212 0.935,2.141 0,0.907 -0.312,1.616 -0.935,2.125 C 7.824,-0.255 6.957,0 5.848,0 Z m 0,-19.516 h -4.896 v 23.8 H 6.119 c 2.539,0 4.533,-0.657 5.985,-1.971 1.472,-1.292 2.209,-2.982 2.209,-5.067 0,-1.587 -0.436,-2.964 -1.309,-4.131 -0.873,-1.168 -2.08,-1.989 -3.621,-2.465 l 7.345,-10.166 H 11.049 L 4.113,-9.894 H 0 Z"
             style="fill:#ffffff;fill-opacity:1;fill-rule:nonzero;stroke:none"
             id="path336"
             inkscape:connector-curvature="0" /></g><g
           id="g338"
           transform="translate(1482.1826,262.4521)"><path
             d="m 0,0 c 1.405,-1.474 3.162,-2.21 5.271,-2.21 2.083,0 3.83,0.736 5.235,2.21 1.405,1.473 2.108,3.332 2.108,5.576 0,2.243 -0.703,4.102 -2.108,5.575 -1.405,1.474 -3.152,2.21 -5.235,2.21 C 3.162,13.361 1.405,12.625 0,11.151 -1.383,9.701 -2.074,7.842 -2.074,5.576 -2.074,3.309 -1.383,1.45 0,0 m -7.072,5.576 c 0,3.49 1.167,6.414 3.503,8.772 2.334,2.402 5.28,3.604 8.84,3.604 3.535,0 6.47,-1.202 8.805,-3.604 2.357,-2.403 3.536,-5.327 3.536,-8.772 0,-3.423 -1.179,-6.347 -3.536,-8.772 C 11.741,-5.599 8.806,-6.8 5.271,-6.8 c -3.56,0 -6.506,1.201 -8.84,3.604 -2.336,2.402 -3.503,5.326 -3.503,8.772"
             style="fill:#ffffff;fill-opacity:1;fill-rule:nonzero;stroke:none"
             id="path340"
             inkscape:connector-curvature="0" /></g><g
           id="g342"
           transform="translate(1513.7344,255.6523)"><path
             d="m 0,0 c -2.97,0 -5.406,0.918 -7.311,2.754 -1.903,1.836 -2.855,4.408 -2.855,7.718 v 13.803 h 4.861 V 10.302 c 0,-1.836 0.483,-3.247 1.446,-4.234 C -2.896,5.083 -1.609,4.59 0,4.59 c 1.632,0 2.93,0.493 3.893,1.478 0.962,0.987 1.445,2.398 1.445,4.234 v 13.973 h 4.896 V 10.472 C 10.234,7.162 9.271,4.59 7.344,2.754 5.439,0.918 2.992,0 0,0"
             style="fill:#ffffff;fill-opacity:1;fill-rule:nonzero;stroke:none"
             id="path344"
             inkscape:connector-curvature="0" /></g><g
           id="g346"
           transform="translate(1533.4199,275.6436)"><path
             d="m 0,0 v -5.916 h 5.168 c 1.178,0 2.096,0.256 2.754,0.766 0.657,0.509 0.986,1.241 0.986,2.192 0,0.952 -0.329,1.684 -0.986,2.193 C 7.264,-0.255 6.346,0 5.168,0 Z m 0,-19.516 h -4.896 v 23.8 H 5.508 c 2.56,0 4.578,-0.669 6.053,-2.006 1.495,-1.314 2.243,-3.038 2.243,-5.168 0,-2.153 -0.748,-3.887 -2.243,-5.202 -1.475,-1.338 -3.493,-2.006 -6.053,-2.006 H 0 Z"
             style="fill:#ffffff;fill-opacity:1;fill-rule:nonzero;stroke:none"
             id="path348"
             inkscape:connector-curvature="0" /></g><g
           id="g350"
           transform="translate(1375.8848,839.8105)"><path
             d="m 0,0 c -3.694,0 -6.766,1.155 -9.213,3.468 -2.449,2.357 -3.673,5.326 -3.673,8.908 0,3.626 1.212,6.596 3.638,8.907 2.449,2.313 5.531,3.469 9.248,3.469 2.313,0 4.408,-0.499 6.291,-1.496 v -4.931 c -1.836,1.225 -3.922,1.836 -6.256,1.836 -2.244,0 -4.138,-0.736 -5.679,-2.21 -1.496,-1.45 -2.244,-3.309 -2.244,-5.575 0,-2.268 0.771,-4.138 2.312,-5.61 1.519,-1.452 3.457,-2.176 5.814,-2.176 2.607,0 4.783,0.69 6.529,2.074 V 1.733 C 4.84,0.577 2.584,0 0,0"
             style="fill:#ffffff;fill-opacity:1;fill-rule:nonzero;stroke:none"
             id="path352"
             inkscape:connector-curvature="0" /></g><g
           id="g354"
           transform="translate(1392.4092,846.6104)"><path
             d="m 0,0 c 1.405,-1.474 3.162,-2.21 5.271,-2.21 2.083,0 3.83,0.736 5.235,2.21 1.405,1.473 2.108,3.332 2.108,5.576 0,2.243 -0.703,4.102 -2.108,5.575 -1.405,1.474 -3.152,2.21 -5.235,2.21 C 3.162,13.361 1.405,12.625 0,11.151 -1.383,9.701 -2.074,7.842 -2.074,5.576 -2.074,3.309 -1.383,1.45 0,0 m -7.072,5.576 c 0,3.49 1.167,6.414 3.503,8.772 2.334,2.402 5.28,3.604 8.84,3.604 3.535,0 6.47,-1.202 8.805,-3.604 2.357,-2.403 3.536,-5.327 3.536,-8.772 0,-3.423 -1.179,-6.347 -3.536,-8.772 C 11.741,-5.599 8.806,-6.8 5.271,-6.8 c -3.56,0 -6.506,1.201 -8.84,3.604 -2.336,2.402 -3.503,5.326 -3.503,8.772"
             style="fill:#ffffff;fill-opacity:1;fill-rule:nonzero;stroke:none"
             id="path356"
             inkscape:connector-curvature="0" /></g><g
           id="g358"
           transform="translate(1418.9961,840.2861)"><path
             d="m 0,0 h -4.896 v 23.8 h 4.863 l 6.901,-9.86 6.903,9.86 h 4.827 V 0 H 13.771 V 16.286 L 8.297,8.636 H 5.576 L 0,16.286 Z"
             style="fill:#ffffff;fill-opacity:1;fill-rule:nonzero;stroke:none"
             id="path360"
             inkscape:connector-curvature="0" /></g><g
           id="g362"
           transform="translate(1447.4199,859.8018)"><path
             d="m 0,0 v -5.916 h 5.168 c 1.179,0 2.097,0.256 2.754,0.766 0.658,0.509 0.986,1.241 0.986,2.192 0,0.952 -0.328,1.684 -0.986,2.193 C 7.265,-0.255 6.347,0 5.168,0 Z m 0,-19.516 h -4.896 v 23.8 H 5.508 c 2.561,0 4.578,-0.669 6.053,-2.006 1.496,-1.314 2.244,-3.038 2.244,-5.168 0,-2.153 -0.748,-3.887 -2.244,-5.202 -1.475,-1.338 -3.492,-2.006 -6.053,-2.006 H 0 Z"
             style="fill:#ffffff;fill-opacity:1;fill-rule:nonzero;stroke:none"
             id="path364"
             inkscape:connector-curvature="0" /></g><g
           id="g366"
           transform="translate(1481.5566,840.2861)"><path
             d="m 0,0 h -16.967 v 23.8 h 4.897 V 4.386 l 12.07,0 z"
             style="fill:#ffffff;fill-opacity:1;fill-rule:nonzero;stroke:none"
             id="path368"
             inkscape:connector-curvature="0" /></g><g
           id="g370"
           transform="translate(1502.6016,840.2861)"><path
             d="m 0,0 h -17.85 v 23.8 h 17.477 v -4.386 h -12.58 v -4.59 H -2.821 V 10.506 H -12.953 V 4.386 L 0,4.386 Z"
             style="fill:#ffffff;fill-opacity:1;fill-rule:nonzero;stroke:none"
             id="path372"
             inkscape:connector-curvature="0" /></g><g
           id="g374"
           transform="translate(1505.1855,864.0859)"><path
             d="M 0,0 H 5.713 L 10.711,-7.105 15.777,0 H 21.42 L 13.566,-10.948 22.814,-23.8 h -5.711 l -6.46,8.874 -6.426,-8.874 h -5.645 l 9.282,12.819 z"
             style="fill:#ffffff;fill-opacity:1;fill-rule:nonzero;stroke:none"
             id="path376"
             inkscape:connector-curvature="0" /></g><g
           id="g378"
           transform="translate(1375.8848,803.8105)"><path
             d="m 0,0 c -3.694,0 -6.766,1.155 -9.213,3.468 -2.449,2.357 -3.673,5.326 -3.673,8.908 0,3.626 1.212,6.596 3.638,8.907 2.449,2.313 5.531,3.469 9.248,3.469 2.313,0 4.408,-0.499 6.291,-1.496 v -4.931 c -1.836,1.225 -3.922,1.836 -6.256,1.836 -2.244,0 -4.138,-0.736 -5.679,-2.21 -1.496,-1.45 -2.244,-3.309 -2.244,-5.575 0,-2.268 0.771,-4.138 2.312,-5.61 1.519,-1.452 3.457,-2.176 5.814,-2.176 2.607,0 4.783,0.69 6.529,2.074 V 1.733 C 4.84,0.577 2.584,0 0,0"
             style="fill:#ffffff;fill-opacity:1;fill-rule:nonzero;stroke:none"
             id="path380"
             inkscape:connector-curvature="0" /></g><g
           id="g382"
           transform="translate(1392.4092,810.6104)"><path
             d="m 0,0 c 1.405,-1.474 3.162,-2.21 5.271,-2.21 2.083,0 3.83,0.736 5.235,2.21 1.405,1.473 2.108,3.332 2.108,5.576 0,2.243 -0.703,4.102 -2.108,5.575 -1.405,1.474 -3.152,2.21 -5.235,2.21 C 3.162,13.361 1.405,12.625 0,11.151 -1.383,9.701 -2.074,7.842 -2.074,5.576 -2.074,3.309 -1.383,1.45 0,0 m -7.072,5.576 c 0,3.49 1.167,6.414 3.503,8.772 2.334,2.402 5.28,3.604 8.84,3.604 3.535,0 6.47,-1.202 8.805,-3.604 2.357,-2.403 3.536,-5.327 3.536,-8.772 0,-3.423 -1.179,-6.347 -3.536,-8.772 C 11.741,-5.599 8.806,-6.8 5.271,-6.8 c -3.56,0 -6.506,1.201 -8.84,3.604 -2.336,2.402 -3.503,5.326 -3.503,8.772"
             style="fill:#ffffff;fill-opacity:1;fill-rule:nonzero;stroke:none"
             id="path384"
             inkscape:connector-curvature="0" /></g><g
           id="g386"
           transform="translate(1418.9961,804.2861)"><path
             d="m 0,0 h -4.896 v 23.8 h 4.863 l 6.901,-9.86 6.903,9.86 h 4.827 V 0 H 13.771 V 16.286 L 8.297,8.636 H 5.576 L 0,16.286 Z"
             style="fill:#ffffff;fill-opacity:1;fill-rule:nonzero;stroke:none"
             id="path388"
             inkscape:connector-curvature="0" /></g><g
           id="g390"
           transform="translate(1447.4199,804.2861)"><path
             d="m 0,0 h -4.896 v 23.8 h 4.863 l 6.901,-9.86 6.903,9.86 h 4.827 V 0 H 13.771 V 16.286 L 8.297,8.636 H 5.576 L 0,16.286 Z"
             style="fill:#ffffff;fill-opacity:1;fill-rule:nonzero;stroke:none"
             id="path392"
             inkscape:connector-curvature="0" /></g><g
           id="g394"
           transform="translate(1480.8086,803.8105)"><path
             d="m 0,0 c -2.971,0 -5.406,0.918 -7.311,2.754 -1.904,1.836 -2.855,4.408 -2.855,7.718 v 13.803 h 4.861 V 10.302 c 0,-1.836 0.482,-3.247 1.446,-4.234 C -2.896,5.083 -1.61,4.59 0,4.59 c 1.631,0 2.929,0.493 3.893,1.478 0.962,0.987 1.445,2.398 1.445,4.234 v 13.973 h 4.895 V 10.472 C 10.233,7.162 9.27,4.59 7.344,2.754 5.439,0.918 2.992,0 0,0"
             style="fill:#ffffff;fill-opacity:1;fill-rule:nonzero;stroke:none"
             id="path396"
             inkscape:connector-curvature="0" /></g><g
           id="g398"
           transform="translate(1500.3916,804.2861)"><path
             d="m 0,0 h -4.794 v 23.8 h 4.182 L 11.39,8.568 V 23.8 h 4.759 V 0 H 12.104 L 0,15.3 Z"
             style="fill:#ffffff;fill-opacity:1;fill-rule:nonzero;stroke:none"
             id="path400"
             inkscape:connector-curvature="0" /></g><path
           d="m 1526.504,804.286 h -4.862 v 23.8 h 4.862 z"
           style="fill:#ffffff;fill-opacity:1;fill-rule:nonzero;stroke:none"
           id="path402"
           inkscape:connector-curvature="0" /><g
           id="g404"
           transform="translate(1543.6387,803.8105)"><path
             d="m 0,0 c -3.694,0 -6.766,1.155 -9.213,3.468 -2.449,2.357 -3.673,5.326 -3.673,8.908 0,3.626 1.212,6.596 3.638,8.907 2.449,2.313 5.531,3.469 9.248,3.469 2.313,0 4.408,-0.499 6.291,-1.496 v -4.931 c -1.836,1.225 -3.922,1.836 -6.256,1.836 -2.244,0 -4.138,-0.736 -5.679,-2.21 -1.496,-1.45 -2.244,-3.309 -2.244,-5.575 0,-2.268 0.771,-4.138 2.312,-5.61 1.519,-1.452 3.457,-2.176 5.814,-2.176 2.607,0 4.783,0.69 6.529,2.074 V 1.733 C 4.84,0.577 2.584,0 0,0"
             style="fill:#ffffff;fill-opacity:1;fill-rule:nonzero;stroke:none"
             id="path406"
             inkscape:connector-curvature="0" /></g><g
           id="g408"
           transform="translate(1564.6846,822.1025)"><path
             d="m 0,0 -3.502,-8.263 h 6.97 z m -7.378,-17.816 h -5.135 L -2.312,6.119 H 2.38 l 10.2,-23.935 H 7.378 l -2.346,5.507 H -5.032 Z"
             style="fill:#ffffff;fill-opacity:1;fill-rule:nonzero;stroke:none"
             id="path410"
             inkscape:connector-curvature="0" /></g><g
           id="g412"
           transform="translate(1575.0889,823.7002)"><path
             d="M 0,0 V 4.386 H 19.958 V 0 H 12.41 V -19.414 H 7.515 L 7.515,0 Z"
             style="fill:#ffffff;fill-opacity:1;fill-rule:nonzero;stroke:none"
             id="path414"
             inkscape:connector-curvature="0" /></g><path
           d="m 1603.376,804.286 h -4.862 v 23.8 h 4.862 z"
           style="fill:#ffffff;fill-opacity:1;fill-rule:nonzero;stroke:none"
           id="path416"
           inkscape:connector-curvature="0" /><g
           id="g418"
           transform="translate(1614.6973,810.6104)"><path
             d="m 0,0 c 1.406,-1.474 3.162,-2.21 5.271,-2.21 2.084,0 3.83,0.736 5.235,2.21 1.406,1.473 2.108,3.332 2.108,5.576 0,2.243 -0.702,4.102 -2.108,5.575 -1.405,1.474 -3.151,2.21 -5.235,2.21 C 3.162,13.361 1.406,12.625 0,11.151 -1.383,9.701 -2.074,7.842 -2.074,5.576 -2.074,3.309 -1.383,1.45 0,0 m -7.072,5.576 c 0,3.49 1.168,6.414 3.503,8.772 2.334,2.402 5.28,3.604 8.84,3.604 3.536,0 6.471,-1.202 8.805,-3.604 2.358,-2.403 3.536,-5.327 3.536,-8.772 0,-3.423 -1.178,-6.347 -3.536,-8.772 C 11.742,-5.599 8.807,-6.8 5.271,-6.8 c -3.56,0 -6.506,1.201 -8.84,3.604 -2.335,2.402 -3.503,5.326 -3.503,8.772"
             style="fill:#ffffff;fill-opacity:1;fill-rule:nonzero;stroke:none"
             id="path420"
             inkscape:connector-curvature="0" /></g><g
           id="g422"
           transform="translate(1641.1836,804.2861)"><path
             d="m 0,0 h -4.794 v 23.8 h 4.182 L 11.39,8.568 V 23.8 h 4.76 V 0 H 12.104 L 0,15.3 Z"
             style="fill:#ffffff;fill-opacity:1;fill-rule:nonzero;stroke:none"
             id="path424"
             inkscape:connector-curvature="0" /></g><g
           id="g426"
           transform="translate(1670.1504,803.8105)"><path
             d="M 0,0 C -3.581,0 -6.596,0.85 -9.043,2.55 V 7.649 C -8.047,6.788 -6.731,6.04 -5.1,5.405 c 1.655,-0.611 3.288,-0.918 4.897,-0.918 1.337,0 2.435,0.243 3.298,0.732 0.86,0.487 1.292,1.161 1.292,2.022 0,0.93 -0.408,1.587 -1.225,1.973 -0.34,0.204 -0.793,0.408 -1.359,0.611 l -0.817,0.273 -1.904,0.578 -1.768,0.578 c -0.25,0.067 -0.781,0.26 -1.597,0.578 -0.703,0.272 -1.213,0.51 -1.53,0.714 -1.179,0.815 -1.927,1.507 -2.244,2.073 -0.545,1.089 -0.816,2.199 -0.816,3.332 0,2.109 0.805,3.763 2.414,4.965 1.609,1.224 3.796,1.836 6.562,1.836 2.788,0 5.383,-0.658 7.786,-1.973 V 18.02 c -2.426,1.496 -4.998,2.244 -7.719,2.244 -2.697,0 -4.045,-0.783 -4.045,-2.346 0,-0.681 0.419,-1.225 1.258,-1.633 0.498,-0.271 1.144,-0.51 1.937,-0.714 C 0.386,15.276 1.247,15.027 1.904,14.823 3.877,14.212 5.6,13.384 7.072,12.342 8.659,11.23 9.453,9.576 9.453,7.378 9.453,5.088 8.557,3.286 6.767,1.972 4.976,0.657 2.721,0 0,0"
             style="fill:#ffffff;fill-opacity:1;fill-rule:nonzero;stroke:none"
             id="path428"
             inkscape:connector-curvature="0" /></g><g
           id="g430"
           transform="translate(1367.1592,289.2803)"><path
             d="M 0,0 C 0,7.644 -4.167,14.327 -10.346,17.912 L -11.27,17.041 -24.051,4.981 V 38.214 H -38.785 V -41.84 h 14.734 v 37.533 l 12.781,-12.058 1.366,-1.288 C -3.969,-14.011 0,-7.46 0,0"
             style="fill:#84c1ed;fill-opacity:1;fill-rule:nonzero;stroke:none"
             id="path432"
             inkscape:connector-curvature="0" /></g><g
           id="g434"
           transform="translate(1369.6826,319.335)"><path
             d="m 0,0 -8.977,-8.469 c 7.001,-4.635 11.629,-12.579 11.629,-21.586 0,-8.826 -4.445,-16.631 -11.212,-21.302 l 8.952,-8.445 C 9.15,-52.835 14.776,-42.09 14.776,-30.055 14.776,-17.841 8.982,-6.956 0,0"
             style="fill:#2695df;fill-opacity:1;fill-rule:nonzero;stroke:none"
             id="path436"
             inkscape:connector-curvature="0" /></g><g
           id="g438"
           transform="translate(1382.3643,331.3008)"><path
             d="m 0,0 -8.879,-8.377 c 9.84,-7.92 16.15,-20.058 16.15,-33.644 0,-13.407 -6.144,-25.406 -15.763,-33.331 l 8.868,-8.366 c 11.645,10.146 19.018,25.076 19.018,41.697 C 19.394,-25.221 11.861,-10.15 0,0"
             style="fill:#2d6dc5;fill-opacity:1;fill-rule:nonzero;stroke:none"
             id="path440"
             inkscape:connector-curvature="0" /></g><g
           id="g442"
           transform="translate(1205.5254,313.9277)"><path
             d="m 0,0 h 16.719 c 2.567,0 4.849,-0.278 6.783,-0.829 1.754,-0.501 3.224,-1.182 4.368,-2.021 1.003,-0.74 1.744,-1.585 2.263,-2.582 0.519,-1.001 0.771,-2.113 0.771,-3.401 0,-1.316 -0.252,-2.441 -0.77,-3.438 -0.508,-0.978 -1.24,-1.81 -2.238,-2.542 -1.142,-0.835 -2.622,-1.514 -4.399,-2.018 -1.928,-0.551 -4.21,-0.83 -6.783,-0.83 L 0,-17.661 Z M 18.523,-52.922 H 0.004 v 21.695 h 18.515 c 2.983,0 5.655,-0.328 7.937,-0.974 2.11,-0.603 3.875,-1.423 5.247,-2.437 1.253,-0.922 2.175,-1.974 2.819,-3.217 0.652,-1.256 0.968,-2.634 0.968,-4.214 v -0.003 c 0.004,-1.616 -0.31,-3.01 -0.963,-4.265 -0.636,-1.23 -1.549,-2.267 -2.792,-3.171 -1.396,-1.017 -3.172,-1.837 -5.274,-2.435 -2.274,-0.65 -4.944,-0.979 -7.938,-0.979 m 17.835,29.2 c 2.991,1.568 7.582,4.858 8.846,10.69 0.299,1.457 0.443,2.832 0.443,4.204 0,3.304 -0.743,6.417 -2.21,9.255 -1.48,2.842 -3.616,5.302 -6.347,7.312 -2.586,1.908 -5.689,3.387 -9.223,4.394 -3.35,0.954 -7.099,1.437 -11.143,1.437 H -14.73 v -80.049 h 33.253 c 4.464,0 8.602,0.533 12.298,1.583 3.861,1.1 7.247,2.7 10.069,4.754 2.992,2.176 5.325,4.854 6.936,7.958 1.598,3.079 2.408,6.482 2.408,10.115 0,2.355 -0.38,4.697 -1.138,6.979 -2.632,7.352 -9.007,10.265 -12.738,11.368"
             style="fill:#84c1ed;fill-opacity:1;fill-rule:nonzero;stroke:none"
             id="path444"
             inkscape:connector-curvature="0" /></g><g
           id="g446"
           transform="translate(1287.583,265.8506)"><path
             d="m 0,0 -24.53,61.067 -0.233,0.577 H -40.476 L -8.314,-18.41 H 8.315 L 40.482,61.644 H 24.769 Z"
             style="fill:#84c1ed;fill-opacity:1;fill-rule:nonzero;stroke:none"
             id="path448"
             inkscape:connector-curvature="0" /></g><g
           id="g450"
           transform="translate(1206.5186,829.2363)"><path
             d="m 0,0 39.784,-37.533 h 20.59 L 15.669,4.645 55.812,42.521 H 35.222 L 0,9.289 V 42.521 H -14.734 V -37.533 H 0 Z"
             style="fill:#84c1ed;fill-opacity:1;fill-rule:nonzero;stroke:none"
             id="path452"
             inkscape:connector-curvature="0" /></g><g
           id="g454"
           transform="translate(1305.5713,833.5439)"><path
             d="M 0,0 C 0,7.644 -4.167,14.327 -10.346,17.912 L -11.27,17.041 -24.052,4.981 v 33.233 h -14.734 v -80.055 h 14.734 v 37.533 l 12.782,-12.057 1.365,-1.288 C -3.969,-14.011 0,-7.461 0,0"
             style="fill:#84c1ed;fill-opacity:1;fill-rule:nonzero;stroke:none"
             id="path456"
             inkscape:connector-curvature="0" /></g><g
           id="g458"
           transform="translate(1308.0938,863.5986)"><path
             d="m 0,0 -8.976,-8.47 c 7,-4.635 11.629,-12.578 11.629,-21.585 0,-8.826 -4.445,-16.631 -11.212,-21.302 l 8.951,-8.445 c 8.759,6.967 14.385,17.712 14.385,29.747 C 14.777,-17.841 8.982,-6.956 0,0"
             style="fill:#2695df;fill-opacity:1;fill-rule:nonzero;stroke:none"
             id="path460"
             inkscape:connector-curvature="0" /></g><g
           id="g462"
           transform="translate(1320.7754,875.5645)"><path
             d="m 0,0 -8.878,-8.378 c 9.84,-7.92 16.149,-20.058 16.149,-33.643 0,-13.407 -6.143,-25.406 -15.762,-33.331 l 8.868,-8.366 c 11.645,10.146 19.018,25.076 19.018,41.697 C 19.395,-25.222 11.862,-10.15 0,0"
             style="fill:#2d6dc5;fill-opacity:1;fill-rule:nonzero;stroke:none"
             id="path464"
             inkscape:connector-curvature="0" /></g><g
           id="g466"
           transform="translate(1190.9492,600.8545)"><path
             d="m 0,0 v -80.054 h 14.734 v 37.533 L 54.519,-80.054 H 75.108 L 30.403,-37.876 70.546,0 H 49.956 L 14.734,-33.232 V 0 Z"
             style="fill:#84c1ed;fill-opacity:1;fill-rule:nonzero;stroke:none"
             id="path468"
             inkscape:connector-curvature="0" /></g><g
           id="g470"
           transform="translate(1274.4902,561.1953)"><path
             d="m 0,0 c 0,10.349 -5.821,19.359 -14.36,23.938 -5.266,-6.728 -8.377,-15 -8.377,-23.935 0,-8.938 3.111,-17.211 8.378,-23.94 C -5.821,-19.358 0,-10.348 0,0"
             style="fill:#84c1ed;fill-opacity:1;fill-rule:nonzero;stroke:none"
             id="path472"
             inkscape:connector-curvature="0" /></g><g
           id="g474"
           transform="translate(1296.5889,601.9902)"><path
             d="m 0,0 c -0.3,0.006 -0.6,0.011 -0.901,0.011 -12.314,0 -23.458,-4.732 -31.444,-12.337 9.702,-5.781 16.217,-16.378 16.217,-28.469 0,-12.09 -6.514,-22.686 -16.216,-28.468 7.985,-7.605 19.129,-12.337 31.443,-12.337 0.301,0 0.601,0.005 0.901,0.011 9.195,11.081 14.731,25.303 14.731,40.794 C 14.731,-25.304 9.195,-11.081 0,0"
             style="fill:#2695df;fill-opacity:1;fill-rule:nonzero;stroke:none"
             id="path476"
             inkscape:connector-curvature="0" /></g><g
           id="g478"
           transform="translate(1339.623,561.1982)"><path
             d="m 0,0 c 0,19.618 -14.987,36.045 -34.886,39.93 7.907,-11.33 12.554,-25.098 12.554,-39.933 0,-14.834 -4.647,-28.601 -12.554,-39.933 C -14.986,-36.05 0,-19.621 0,0"
             style="fill:#2d6dc5;fill-opacity:1;fill-rule:nonzero;stroke:none"
             id="path480"
             inkscape:connector-curvature="0" /></g></g></g></g></svg>